<svg xmlns="http://www.w3.org/2000/svg" xmlns:xlink="http://www.w3.org/1999/xlink" version="1.1" width="1000" height="1000" viewBox="0 0 1000 1000" xml:space="preserve">
<desc>Created with Fabric.js 3.5.0</desc>
<defs>
</defs>
<rect x="0" y="0" width="100%" height="100%" fill="#ffffff"/>
<g transform="matrix(1.6386 0 0 1.6386 500.003 500.003)" id="929285">
<path style="stroke: none; stroke-width: 1; stroke-dasharray: none; stroke-linecap: butt; stroke-dashoffset: 0; stroke-linejoin: miter; stroke-miterlimit: 4; is-custom-font: none; font-file-url: none; fill: rgb(252,225,132); fill-rule: evenodd; opacity: 1;" vector-effect="non-scaling-stroke" transform=" translate(-387.4005, -385.3705)" d="M 387.401 110.742 C 234.197 110.742 110 233.698 110 385.371 C 110 537.043 234.197 659.999 387.401 659.999 C 540.604 659.999 664.801 537.043 664.801 385.371 C 664.801 233.698 540.604 110.742 387.401 110.742 Z" stroke-linecap="round"/>
</g>
<g transform="matrix(1.4968 0 0 1.4968 513.3733 482.5886)" id="516161">
<path style="stroke: none; stroke-width: 1; stroke-dasharray: none; stroke-linecap: butt; stroke-dashoffset: 0; stroke-linejoin: miter; stroke-miterlimit: 4; is-custom-font: none; font-file-url: none; fill: rgb(255,184,119); fill-rule: evenodd; opacity: 1;" vector-effect="non-scaling-stroke" transform=" translate(-166.6621, -206.9553)" d="M 105.739 109.071 L 137.694 94.4956 C 114.493 -3.88866 146.88 -46.8118 201.767 75.1258 C 222.324 65.5835 247.02 83.0883 272.346 104.721 C 392.076 230.792 305.879 307.598 254.539 379.021 C 214.826 432.701 157.455 418.949 90.4785 368.518 C 23.8078 367.067 -16.2356 339.97 7.19405 251.732 C 11.3669 226.607 20.7932 196.96 34.5215 163.612 C 26.8971 138.711 22.3323 112.632 24.0563 84.1319 C 32.2474 14.8865 91.095 78.5419 105.739 109.071 Z" stroke-linecap="round"/>
</g>
<g transform="matrix(1.4968 0 0 1.4968 410.4187 507.3252)" id="924472">
<linearGradient id="SVGID_13" gradientUnits="userSpaceOnUse" gradientTransform="matrix(1 0 0 1 0 0)" x1="174.349" y1="1428.4" x2="-374.486" y2="1323.66">
<stop offset="0%" style="stop-color:rgb(255,127,127);stop-opacity: 1"/>
<stop offset="100%" style="stop-color:rgb(15,14,12);stop-opacity: 1"/>
</linearGradient>
<path style="stroke: none; stroke-width: 1; stroke-dasharray: none; stroke-linecap: butt; stroke-dashoffset: 0; stroke-linejoin: miter; stroke-miterlimit: 4; is-custom-font: none; font-file-url: none; fill: url(#SVGID_13); fill-rule: evenodd; opacity: 1;" vector-effect="non-scaling-stroke" transform=" translate(-111.2867, -216.0318)" d="M 221.588 404.565 C 179.218 444.658 128.631 440.022 70.8124 396.017 C -37.787 389.574 6.82776 256.514 30.0312 191.624 C 27.1554 149.052 26.0651 108.425 39.5313 72.6278 L 39.5369 72.6334 C 39.3639 73.7635 39.2013 74.9214 39.0585 76.1316 C 37.3344 104.632 41.8992 130.71 49.5236 155.612 C 35.7953 188.96 26.369 218.607 22.1962 243.732 C -1.23353 331.97 38.8099 359.067 105.481 360.518 C 148.807 393.141 188.113 410.406 221.219 404.006 L 221.588 404.565 Z M 150.398 0.0423409 C 141.1 10.7831 136.896 42.003 137.7 93.3346 L 152.695 86.495 C 142.964 45.2311 143.016 13.7343 150.401 0.0535409 L 150.398 0.0423409 Z" stroke-linecap="round"/>
</g>
<g transform="matrix(1.4968 0 0 1.4968 558.1276 543.9301)" id="824690">
<path style="stroke: none; stroke-width: 1; stroke-dasharray: none; stroke-linecap: butt; stroke-dashoffset: 0; stroke-linejoin: miter; stroke-miterlimit: 4; is-custom-font: none; font-file-url: none; fill: rgb(254,248,226); fill-rule: evenodd; opacity: 1;" vector-effect="non-scaling-stroke" transform=" translate(-136.6612, -111.8762)" d="M 272.699 120.653 C 267.451 189.002 237.726 216.504 192.843 218.13 C -9.09905 252.912 -34.1524 94.4299 35.2979 100.546 C 49.9866 101.863 88.4397 124.908 103.105 126.448 C 118.764 128.092 280.429 9.1472 272.699 120.653 Z M 56.3614 50.8324 C 82.1164 21.4192 96.0505 55.4999 76.7513 74.9887 C 54.0271 96.6622 42.6113 70.3925 56.3614 50.8324 Z M 185.665 0.627549 C 197.234 0.62755 205.011 6.89417 206.611 14.8978 C 208.213 22.9018 199.437 29.5001 185.665 29.1684 C 171.893 28.8367 163.011 22.485 164.719 14.8978 C 166.426 7.30987 174.097 0.627548 185.665 0.627549 Z" stroke-linecap="round"/>
</g>
<g transform="matrix(1.4968 0 0 1.4968 427.4906 294.4659)" id="815225">
<path style="stroke: none; stroke-width: 1; stroke-dasharray: none; stroke-linecap: butt; stroke-dashoffset: 0; stroke-linejoin: miter; stroke-miterlimit: 4; is-custom-font: none; font-file-url: none; fill: rgb(254,248,226); fill-rule: evenodd; opacity: 1;" vector-effect="non-scaling-stroke" transform=" translate(-71.6957, -67.632)" d="M 105.309 6.59187 L 107.76 53.5821 C 109.269 72.7422 125.973 73.7153 141.431 62.9418 C 153.123 54.6548 105.734 -21.0092 105.309 6.59187 Z M 9.05341 128.542 C -9.50918 71.4622 -0.895649 16.808 51.04 98.27 C 67.0037 118.642 16.1465 147.452 9.05341 128.542 Z" stroke-linecap="round"/>
</g>
<g transform="matrix(1.4968 0 0 1.4968 611.5209 527.5702)" id="257490">
<linearGradient id="SVGID_14" gradientUnits="userSpaceOnUse" gradientTransform="matrix(1 0 0 1 0 0)" x1="123.795" y1="243.317" x2="-123.24" y2="46.5932">
<stop offset="0%" style="stop-color:rgb(255,127,127);stop-opacity: 1"/>
<stop offset="100%" style="stop-color:rgb(15,14,12);stop-opacity: 1"/>
</linearGradient>
<path style="stroke: none; stroke-width: 1; stroke-dasharray: none; stroke-linecap: butt; stroke-dashoffset: 0; stroke-linejoin: miter; stroke-miterlimit: 4; is-custom-font: none; font-file-url: none; fill: url(#SVGID_14); fill-rule: evenodd; opacity: 1;" vector-effect="non-scaling-stroke" transform=" translate(-79.04, -37.1205)" d="M 115.977 68.9523 C 134.265 76.5123 142.918 76.8185 150.405 59.1351 C 159.506 38.3695 161.637 22.5676 144.277 20.6394 C 104.763 17.9325 64.1471 50.5528 115.977 68.9523 Z M 15.9123 19.0744 C 73.5597 19.664 11.1269 55.1649 0.758793 29.3325 C 11.2222 27.6534 16.8884 24.4309 15.9123 19.0744 Z M 90.5784 0.385498 C 148.226 0.975072 85.7931 36.4762 75.4249 10.6436 C 85.8884 8.96444 91.5548 5.742 90.5784 0.385498 Z" stroke-linecap="round"/>
</g>
<g transform="matrix(1 0 0 1 707.6502 194.706)" id="620279">
<path style="stroke: none; stroke-width: 1; stroke-dasharray: none; stroke-linecap: butt; stroke-dashoffset: 0; stroke-linejoin: miter; stroke-miterlimit: 4; is-custom-font: none; font-file-url: none; fill: rgb(255,127,127); fill-rule: evenodd; opacity: 1;" vector-effect="non-scaling-stroke" transform=" translate(-105.2337, -90.0645)" d="M 0.291837 13.924 C 3.55108 -5.10152 35.0915 -4.17546 36.7155 13.924 C 37.8296 28.5974 38.1559 43.2708 37.7479 57.9428 C 33.2577 111.149 17.7067 114.563 4.08495 56.4739 C 1.10452 42.9091 -0.0729405 28.6942 0.291837 13.924 Z M 184.619 86.3473 C 202.816 78.6902 219.279 105.866 204.553 117.145 C 192.503 126.118 180.022 134.424 167.143 142.108 C 118.785 167.432 107.328 156.151 149.987 112.841 C 160.058 102.898 171.677 94.1223 184.619 86.3473 Z M 108.559 151.773 C 116.468 151.773 122.879 158.121 122.879 165.951 C 122.879 173.781 116.468 180.129 108.559 180.129 C 100.649 180.129 94.2379 173.781 94.2379 165.951 C 94.2379 158.121 100.65 151.773 108.559 151.773 Z M 101.843 24.1955 C 113.241 8.54197 141.139 23.1417 134.535 40.095 C 128.999 53.7514 122.757 67.064 115.856 80.0552 C 88.1283 125.849 72.6502 122.126 86.296 64.042 C 89.6627 50.5659 94.9375 37.2931 101.843 24.1955 Z M 77.1022 116.503 C 85.0111 116.503 91.4229 122.85 91.4229 130.681 C 91.4229 138.511 85.0111 144.859 77.1022 144.859 C 69.193 144.859 62.7806 138.511 62.7806 130.681 C 62.7806 122.85 69.193 116.503 77.1022 116.503 Z M 26.094 105.657 C 34.004 105.657 40.4155 112.006 40.4155 119.836 C 40.4155 127.666 34.004 134.013 26.094 134.013 C 18.1851 134.013 11.7735 127.666 11.7735 119.836 C 11.7735 112.006 18.1851 105.657 26.094 105.657 Z" stroke-linecap="round"/>
</g>
</svg>