<svg width="47" height="47" viewBox="0 0 47 47" fill="none" xmlns="http://www.w3.org/2000/svg">
<g clip-path="url(#clip0_1_126)">
<path d="M46 46H1V41H46V46ZM2 42V43H3V42H2ZM2 44V45H3V44H2ZM45 43V42H44V43H45ZM44 45H45V44H44V45ZM46 1V6H1V1H25H46ZM44 4V5H45V4H44ZM3 4H2V5H3V4ZM5 3V2H4V3H5ZM5 4H4V5H5V4ZM43 5V4H42V5H43ZM45 3V2H44V3H45ZM2 2V3H3V2H2ZM43 2H42V3H43V2ZM5 40H1V7H5V40ZM42 7H46V40H42V7ZM40 40H38V39H37V38H36V37H35V36H34V35H33V34H32V33H31V32H30V31H29V29H30V28H31V25H32V26H33V27H34V28H35V29H36V30H37V31H38V32H39V33H40V40ZM10 30H11V29H12V28H13V27H14V26H15V28H16V29H17V32H16V33H15V34H14V35H13V36H12V37H11V38H10V39H9V40H7V33H8V32H9V31H10V30ZM12 9H13V10H14V11H15V12H16V13H17V14H18V15H19V16H18V17H17V18H16V19H15V18H14V17H13V16H12V15H11V14H10V13H9V12H8V11H7V8H12V9ZM32 19H31V18H30V17H29V16H28V15H29V14H30V13H31V12H32V11H33V10H34V9H35V8H40V11H39V12H38V13H37V14H36V15H35V16H34V17H33V18H32V19Z" fill="#FFB877"/>
<path d="M9 31H8V32H7V13H8V15H9V28V31ZM38 15H39V13H40V32H39V31H38V15ZM11 18V17H12V19H13V27H12V28H11V29H10V18H11ZM34 20V19H35V17H36V18H37V29H36V28H35V27H34V20ZM23 32V31H24V32H25V40H22V32H23ZM19 31H20V32H21V40H18V34H19V31ZM28 34H29V40H26V32H27V31H28V34ZM25 16H22V9H23V8H24V9H25V11V16ZM20 16V15H19V14H18V9H19V8H20V9H21V16H20ZM28 14V15H27V16H26V9H27V8H28V9H29V14H28ZM17 40H14V37H15V35H16V36H17V37V40ZM32 37H33V40H30V36H31V35H32V37ZM14 9H15V8H16V9H17V12H16V11H15V10H14V9ZM30 9H31V8H32V9H33V10H32V11H31V12H30V9ZM31 24V21H32V22H33V25H32V24H31ZM14 22H15V25H14V24V22ZM12 40H11V39H12V40ZM36 39V40H35V39H36Z" fill="#FFB877"/>
<path d="M47 6V7H0V6H47ZM0 41V40H47V41H36H0ZM46 0V1H1V0H8H46ZM1 47V46H46V47H1ZM17 31V30H29V31H17ZM18 17V16H29V17H26H18ZM9 12V13H5V12H6H9ZM42 12V13H38V12H40H42ZM12 16H13V17H9V16H12ZM38 16V17H34V16H36H38ZM17 20V21H13V20H14H17ZM34 20V21H30V20H32H34ZM18 35H14V34H18V35ZM29 35V34H33V35H32H29ZM13 38H14V39H10V38H13ZM37 38V39H33V38H35H37ZM15 8V9H12V8H15ZM16 9V8H19V9H18H16ZM23 9H20V8H23V9ZM24 9V8H27V9H24ZM28 8H31V9H28V8ZM32 9V8H35V9H32ZM11 14V15H8V14H11ZM36 14H39V15H36V14ZM15 19H12V18H15V19ZM25 18V19H22V18H25ZM32 19V18H35V19H32ZM8 32V33H5V32H8ZM16 33V32H19V33H16ZM31 32V33H28V32H29H31ZM42 32V33H39V32H40H42ZM12 36H15V37H12V36ZM32 36H35V37H32V36ZM7 8V9H5V8H6H7ZM42 8V9H40V8H41H42ZM7 11H5V10H7V11ZM42 10V11H40V10H41H42ZM18 12V13H16V12H17H18ZM30 12H31V13H29V12H30ZM7 15H5V14H7V15ZM41 15H40V14H42V15H41ZM7 16V17H5V16H6H7ZM40 17V16H42V17H41H40ZM7 19H5V18H7V19ZM40 19V18H42V19H41H40ZM5 21V20H7V21H6H5ZM41 20H42V21H40V20H41ZM7 22V23H5V22H6H7ZM15 23V22H17V23H16H15ZM40 23V22H42V23H41H40ZM5 25V24H7V25H6H5ZM17 25H15V24H17V25ZM31 25H30V24H32V25H31ZM41 25H40V24H42V25H41ZM5 26H7V27H5V26ZM17 26V27H15V26H16H17ZM41 27H40V26H42V27H41ZM6 28H7V29H5V28H6ZM17 28H18V29H16V28H17ZM42 29H40V28H42V29ZM5 30H7V31H5V30ZM40 30H42V31H40V30ZM6 35H5V34H7V35H6ZM42 34V35H40V34H41H42ZM7 37H5V36H7V37ZM40 37V36H42V37H41H40ZM6 39H5V38H7V39H6ZM41 38H42V39H40V38H41ZM0 2H1V3H0V2ZM3 2V3H2V2H3ZM4 3V2H5V3H4ZM42 3V2H43V3H42ZM44 3V2H45V3H44ZM47 3H46V2H47V3ZM1 4V5H0V4H1ZM2 4H3V5H2V4ZM5 4V5H4V4H5ZM43 5H42V4H43V5ZM45 4V5H44V4H45ZM47 4V5H46V4H47ZM0 8H1V9H0V8ZM46 8H47V9H46V8ZM0 10H1V11H0V10ZM15 10V11H14V10H15ZM17 11V10H18V11H17ZM22 10V11H21V10H22ZM25 11V10H26V11H25ZM29 11V10H30V11H29ZM32 10H33V11H32V10ZM46 11V10H47V11H46ZM0 12H1V13H0V12ZM22 12V13H21V12H22ZM25 13V12H26V13H25ZM46 13V12H47V13H46ZM1 14V15H0V14H1ZM18 15V14H19V15H18ZM21 15V14H22V15H21ZM25 15V14H26V15H25ZM28 15V14H29V15H28ZM47 15H46V14H47V15ZM1 16V17H0V16H1ZM47 17H46V16H47V17ZM0 19V18H1V19H0ZM9 19V18H10V19H9ZM17 18V19H16V18H17ZM19 19V18H20V19H19ZM28 19H27V18H28V19ZM31 19H30V18H31V19ZM38 18V19H37V18H38ZM47 18V19H46V18H47ZM0 21V20H1V21H0ZM10 21H9V20H10V21ZM21 20H22V21H21V20ZM26 20V21H25V20H26ZM38 21H37V20H38V21ZM46 20H47V21H46V20ZM0 23V22H1V23H0ZM10 23H9V22H10V23ZM13 22H14V23H13V22ZM22 23V22H23V23H22ZM25 23H24V22H25V23ZM30 22H31V23H30V22ZM33 22H34V23H33V22ZM38 23H37V22H38V23ZM46 22H47V23H46V22ZM1 25H0V24H1V25ZM9 25V24H10V25H9ZM13 25V24H14V25H13ZM34 25H33V24H34V25ZM38 24V25H37V24H38ZM47 24V25H46V24H47ZM0 26H1V27H0V26ZM9 27V26H10V27H9ZM14 27H13V26H14V27ZM23 26V27H22V26H23ZM24 26H25V27H24V26ZM31 26V27H30V26H31ZM33 27V26H34V27H33ZM38 26V27H37V26H38ZM46 26H47V27H46V26ZM1 28V29H0V28H1ZM10 29H9V28H10V29ZM12 29H11V28H12V29ZM30 28V29H29V28H30ZM36 28V29H35V28H36ZM38 28V29H37V28H38ZM47 28V29H46V28H47ZM0 31V30H1V31H0ZM9 30H10V31H9V30ZM38 30V31H37V30H38ZM46 31V30H47V31H46ZM0 32H1V33H0V32ZM22 33H21V32H22V33ZM26 32V33H25V32H26ZM46 32H47V33H46V32ZM0 34H1V35H0V34ZM22 35H21V34H22V35ZM25 34H26V35H25V34ZM46 35V34H47V35H46ZM1 36V37H0V36H1ZM17 36H18V37H17V36ZM22 37H21V36H22V37ZM25 36H26V37H25V36ZM30 37H29V36H30V37ZM47 36V37H46V36H47ZM1 39H0V38H1V39ZM17 38H18V39H17V38ZM22 39H21V38H22V39ZM26 38V39H25V38H26ZM29 38H30V39H29V38ZM47 38V39H46V38H47ZM0 43V42H1V43H0ZM3 43H2V42H3V43ZM45 43H44V42H45V43ZM46 43V42H47V43H46ZM1 44V45H0V44H1ZM2 44H3V45H2V44ZM45 45H44V44H45V45ZM47 45H46V44H47V45Z" fill="#0F0E0C"/>
<path d="M42 8H5V7H42V8ZM29 29V30H17V29H29ZM17 20H13V19H17V20ZM30 20V19H34V20H33H30ZM13 22V21H17V22H16H13ZM13 26V25H17V26H16H13ZM19 34H15V33H19V34ZM32 34H28V33H32V34ZM8 12H5V11H8V12ZM42 11V12H39V11H40H42ZM12 15V16H9V15H12ZM35 16V15H38V16H35ZM20 32V31H23V32H20ZM24 32V31H27V32H24ZM14 38H11V37H14V38ZM36 37V38H33V37H36ZM6 9H7V10H5V9H6ZM41 9H42V10H40V9H41ZM7 13V14H5V13H6H7ZM10 14H8V13H10V14ZM37 13H39V14H37V13ZM42 13V14H40V13H41H42ZM5 16V15H7V16H6H5ZM40 16V15H42V16H41H40ZM5 18V17H7V18H6H5ZM10 17H11V18H9V17H10ZM14 18H12V17H14V18ZM33 17H35V18H33V17ZM38 18H36V17H38V18ZM40 18V17H42V18H41H40ZM5 19H7V20H5V19ZM40 19H42V20H40V19ZM7 22H5V21H7V22ZM34 21V22H32V21H33H34ZM40 22V21H42V22H41H40ZM6 23H7V24H5V23H6ZM17 24H15V23H17V24ZM42 24H40V23H42V24ZM5 26V25H7V26H6H5ZM32 25H34V26H32V25ZM40 25H42V26H40V25ZM7 27V28H5V27H6H7ZM15 27H17V28H15V27ZM42 27V28H40V27H41H42ZM6 30H5V29H7V30H6ZM9 30V29H11V30H10H9ZM38 30H36V29H38V30ZM42 30H40V29H42V30ZM5 31H7V32H5V31ZM18 32H17V31H19V32H18ZM29 31H30V32H28V31H29ZM40 31H42V32H40V31ZM7 34H5V33H7V34ZM41 33H42V34H40V33H41ZM7 35V36H5V35H6H7ZM14 36H13V35H15V36H14ZM16 35H18V36H16V35ZM30 35H31V36H29V35H30ZM34 35V36H32V35H33H34ZM41 35H42V36H40V35H41ZM5 38V37H7V38H6H5ZM42 38H40V37H42V38ZM5 40V39H7V40H6H5ZM11 39V40H9V39H10H11ZM12 39H14V40H12V39ZM34 40H33V39H35V40H34ZM36 39H38V40H36V39ZM42 39V40H40V39H41H42ZM1 1V2H0V1H1ZM47 1V2H46V1H47ZM0 3H1V4H0V3ZM46 3H47V4H46V3ZM1 6H0V5H1V6ZM47 6H46V5H47V6ZM0 7H1V8H0V7ZM47 7V8H46V7H47ZM0 9H1V10H0V9ZM13 9H14V10H13V9ZM18 9V10H17V9H18ZM21 10V9H22V10H21ZM26 10H25V9H26V10ZM30 10H29V9H30V10ZM34 10H33V9H34V10ZM47 9V10H46V9H47ZM1 11V12H0V11H1ZM15 11H16V12H15V11ZM18 12H17V11H18V12ZM21 12V11H22V12H21ZM25 11H26V12H25V11ZM30 12H29V11H30V12ZM31 11H32V12H31V11ZM47 11V12H46V11H47ZM1 13V14H0V13H1ZM17 14V13H18V14H17ZM22 14H21V13H22V14ZM26 13V14H25V13H26ZM30 14H29V13H30V14ZM46 13H47V14H46V13ZM0 16V15H1V16H0ZM19 16V15H20V16H19ZM22 16H21V15H22V16ZM26 16H25V15H26V16ZM27 15H28V16H27V15ZM47 16H46V15H47V16ZM0 17H1V18H0V17ZM18 17V18H17V17H18ZM29 18V17H30V18H29ZM46 18V17H47V18H46ZM1 20H0V19H1V20ZM10 20H9V19H10V20ZM22 19V20H21V19H22ZM25 20V19H26V20H25ZM38 19V20H37V19H38ZM47 19V20H46V19H47ZM1 22H0V21H1V22ZM9 22V21H10V22H9ZM22 21H23V22H22V21ZM24 21H25V22H24V21ZM30 21H31V22H30V21ZM38 21V22H37V21H38ZM47 21V22H46V21H47ZM0 24V23H1V24H0ZM9 24V23H10V24H9ZM14 23V24H13V23H14ZM23 24V23H24V24H23ZM31 23V24H30V23H31ZM34 24H33V23H34V24ZM38 24H37V23H38V24ZM46 23H47V24H46V23ZM0 26V25H1V26H0ZM10 25V26H9V25H10ZM24 25V26H23V25H24ZM31 25V26H30V25H31ZM38 25V26H37V25H38ZM47 26H46V25H47V26ZM0 27H1V28H0V27ZM9 27H10V28H9V27ZM13 28H12V27H13V28ZM19 28V27H20V28H19ZM23 27H24V28H23V27ZM27 27H28V28H27V27ZM31 28H30V27H31V28ZM34 28V27H35V28H34ZM37 28V27H38V28H37ZM47 28H46V27H47V28ZM0 29H1V30H0V29ZM47 30H46V29H47V30ZM1 31V32H0V31H1ZM8 32V31H9V32H8ZM39 31V32H38V31H39ZM47 31V32H46V31H47ZM1 33V34H0V33H1ZM22 33V34H21V33H22ZM25 33H26V34H25V33ZM47 34H46V33H47V34ZM1 36H0V35H1V36ZM22 36H21V35H22V36ZM26 35V36H25V35H26ZM47 36H46V35H47V36ZM0 38V37H1V38H0ZM17 38V37H18V38H17ZM22 38H21V37H22V38ZM25 38V37H26V38H25ZM29 38V37H30V38H29ZM46 38V37H47V38H46ZM0 39H1V40H0V39ZM18 39V40H17V39H18ZM22 39V40H21V39H22ZM25 40V39H26V40H25ZM30 39V40H29V39H30ZM47 40H46V39H47V40ZM0 41H1V42H0V41ZM47 41V42H46V41H47ZM0 43H1V44H0V43ZM47 43V44H46V43H47ZM0 46V45H1V46H0ZM46 45H47V46H46V45Z" fill="#0F0E0C"/>
<path d="M17 18H18V17H29V18H30V28H29V29H18V28H17V18ZM20 27H19V28H20V27ZM27 27V28H28V27H27ZM22 27H23V28H24V27H25V26H24V25H23V26H22V27ZM21 21H22V23H23V24H24V23H25V21H26V19H25V18H22V19H21V21ZM27 18V19H28V18H27ZM20 19V18H19V19H20Z" fill="#FEF8E2"/>
<path d="M22 20V19H25V21H24V23H23V21H22V20ZM23 27V26H24V27H23Z" fill="#FF7F7F"/>
</g>
<defs>
<clipPath id="clip0_1_126">
<rect width="47" height="47" fill="white"/>
</clipPath>
</defs>
</svg>
